ffmpeg started on 2025-05-12 at 14:38:25
Report written to "D:\Convert\FFMetrics\reports\ssim_report-6.txt"
Log level: 32
Command line:
ffmpeg -hide_banner -nostdin -i "G:\\\xc0\xed\xe8\xec\xe5\\\xce\xed\xe3\xee\xe8\xed\xe3\xe8\\!_35_\xcb\xe5\xf2\xee_2024\\DreamCast\\\xc4\xe8\xf1\xea\xe2\xe0\xeb\xe8\xf4\xe8\xf6\xe8\xf0\xee\xe2\xe0\xed \xef\xee \xe6\xe8\xe7\xed\xe8\\[DC] Isekai Shikkaku - 03_Telegram_HEVC.mkv" -i "G:\\\xc0\xed\xe8\xec\xe5\\\xce\xed\xe3\xee\xe8\xed\xe3\xe8\\!_35_\xcb\xe5\xf2\xee_2024\\DreamCast\\\xc4\xe8\xf1\xea\xe2\xe0\xeb\xe8\xf4\xe8\xf6\xe8\xf0\xee\xe2\xe0\xed \xef\xee \xe6\xe8\xe7\xed\xe8\\[DC] Isekai Shikkaku - 03_Telegram.mp4" -lavfi "[0:v]settb=AVTB,setpts=PTS-STARTPTS,format=pix_fmts=yuv420p10,fps=24000/1001,scale=1920:1080:flags=bicubic[main];[1:v]settb=AVTB,setpts=PTS-STARTPTS,format=pix_fmts=yuv420p,fps=24000/1001,scale=1920:1080:flags=bicubic[ref];[main][ref]ssim=eof_action=endall:stats_file='D\\:/Convert/FFMetrics/logs/ssim_logfile-6.txt'" -f null -
Input #0, matroska,webm, from 'G:\Аниме\Онгоинги\!_35_Лето_2024\DreamCast\Дисквалифицирован по жизни\[DC] Isekai Shikkaku - 03_Telegram_HEVC.mkv':
  Metadata:
    COMPATIBLE_BRANDS: isomiso2avc1mp41
    MAJOR_BRAND     : isom
    MINOR_VERSION   : 512
    ENCODER         : Lavf61.7.100
  Duration: 00:23:46.65, start: -0.021000, bitrate: 1117 kb/s
  Stream #0:0: Video: hevc (Main 10), yuv420p10le(tv, bt709, progressive), 1920x1080 [SAR 1:1 DAR 16:9], 23.98 fps, 23.98 tbr, 1k tbn (default)
      Metadata:
        HANDLER_NAME    : VideoHandler
        VENDOR_ID       : [0][0][0][0]
        ENCODER         : Lavc61.19.100 libx265
        BPS             : 920211
        DURATION        : 00:23:46.549708333
        NUMBER_OF_FRAMES: 34203
        NUMBER_OF_BYTES : 164090830
        _STATISTICS_WRITING_APP: mkvpropedit v66.0.0 ('Josie') 64-bit
        _STATISTICS_WRITING_DATE_UTC: 2025-05-07 10:16:31
        _STATISTICS_TAGS: BPS DURATION NUMBER_OF_FRAMES NUMBER_OF_BYTES
  Stream #0:1: Audio: aac (LC), 48000 Hz, stereo, fltp (default)
      Metadata:
        HANDLER_NAME    : SoundHandler
        VENDOR_ID       : [0][0][0][0]
        ENCODER         : Lavc61.19.100 aac
        BPS             : 193091
        DURATION        : 00:23:46.645000000
        NUMBER_OF_FRAMES: 66875
        NUMBER_OF_BYTES : 34434203
        _STATISTICS_WRITING_APP: mkvpropedit v66.0.0 ('Josie') 64-bit
        _STATISTICS_WRITING_DATE_UTC: 2025-05-07 10:16:31
        _STATISTICS_TAGS: BPS DURATION NUMBER_OF_FRAMES NUMBER_OF_BYTES
Input #1, mov,mp4,m4a,3gp,3g2,mj2, from 'G:\Аниме\Онгоинги\!_35_Лето_2024\DreamCast\Дисквалифицирован по жизни\[DC] Isekai Shikkaku - 03_Telegram.mp4':
  Metadata:
    major_brand     : isom
    minor_version   : 512
    compatible_brands: isomiso2avc1mp41
    encoder         : Lavf60.16.100
  Duration: 00:23:46.62, start: 0.000000, bitrate: 3864 kb/s
  Stream #1:0[0x1](und): Video: h264 (High) (avc1 / 0x31637661), yuv420p(tv, bt709, progressive), 1920x1080 [SAR 1:1 DAR 16:9], 3716 kb/s, 23.98 fps, 23.98 tbr, 24k tbn (default)
      Metadata:
        handler_name    : VideoHandler
        vendor_id       : [0][0][0][0]
        encoder         : Lavc60.31.102 h264_qsv
  Stream #1:1[0x2](und): Audio: aac (HE-AACv2) (mp4a / 0x6134706D), 48000 Hz, stereo, fltp, 144 kb/s (default)
      Metadata:
        handler_name    : SoundHandler
        vendor_id       : [0][0][0][0]
Stream mapping:
  Stream #0:0 (hevc) -> settb:default
  Stream #1:0 (h264) -> settb:default
  ssim:default -> Stream #0:0 (wrapped_avframe)
  Stream #0:1 -> #0:1 (aac (native) -> pcm_s16le (native))
Output #0, null, to 'pipe:':
  Metadata:
    COMPATIBLE_BRANDS: isomiso2avc1mp41
    MAJOR_BRAND     : isom
    MINOR_VERSION   : 512
    encoder         : Lavf61.7.100
  Stream #0:0: Video: wrapped_avframe, yuv420p10le(tv, bt709, progressive), 1920x1080 [SAR 1:1 DAR 16:9], q=2-31, 200 kb/s, 23.98 fps, 23.98 tbn
      Metadata:
        encoder         : Lavc61.19.100 wrapped_avframe
  Stream #0:1: Audio: pcm_s16le, 48000 Hz, stereo, s16, 1536 kb/s (default)
      Metadata:
        HANDLER_NAME    : SoundHandler
        VENDOR_ID       : [0][0][0][0]
        _STATISTICS_TAGS: BPS DURATION NUMBER_OF_FRAMES NUMBER_OF_BYTES
        BPS             : 193091
        DURATION        : 00:23:46.645000000
        NUMBER_OF_FRAMES: 66875
        NUMBER_OF_BYTES : 34434203
        _STATISTICS_WRITING_APP: mkvpropedit v66.0.0 ('Josie') 64-bit
        _STATISTICS_WRITING_DATE_UTC: 2025-05-07 10:16:31
        encoder         : Lavc61.19.100 pcm_s16le
frame=  158 fps=0.0 q=-0.0 size=N/A time=00:00:06.58 bitrate=N/A speed=13.1x    frame=  392 fps=381 q=-0.0 size=N/A time=00:00:16.34 bitrate=N/A speed=15.9x    frame=  643 fps=418 q=-0.0 size=N/A time=00:00:26.81 bitrate=N/A speed=17.4x    frame=  909 fps=440 q=-0.0 size=N/A time=00:00:37.91 bitrate=N/A speed=18.4x    frame= 1143 fps=444 q=-0.0 size=N/A time=00:00:47.67 bitrate=N/A speed=18.5x    frame= 1323 fps=429 q=-0.0 size=N/A time=00:00:55.18 bitrate=N/A speed=17.9x    frame= 1516 fps=420 q=-0.0 size=N/A time=00:01:03.22 bitrate=N/A speed=17.5x    frame= 1699 fps=413 q=-0.0 size=N/A time=00:01:10.86 bitrate=N/A speed=17.2x    frame= 1864 fps=403 q=-0.0 size=N/A time=00:01:17.74 bitrate=N/A speed=16.8x    frame= 2084 fps=405 q=-0.0 size=N/A time=00:01:26.92 bitrate=N/A speed=16.9x    frame= 2279 fps=403 q=-0.0 size=N/A time=00:01:35.05 bitrate=N/A speed=16.8x    frame= 2443 fps=395 q=-0.0 size=N/A time=00:01:41.89 bitrate=N/A speed=16.5x    frame= 2642 fps=395 q=-0.0 size=N/A time=00:01:50.19 bitrate=N/A speed=16.5x    frame= 2865 fps=397 q=-0.0 size=N/A time=00:01:59.49 bitrate=N/A speed=16.6x    frame= 3101 fps=401 q=-0.0 size=N/A time=00:02:09.33 bitrate=N/A speed=16.7x    frame= 3340 fps=405 q=-0.0 size=N/A time=00:02:19.30 bitrate=N/A speed=16.9x    frame= 3609 fps=411 q=-0.0 size=N/A time=00:02:30.52 bitrate=N/A speed=17.1x    frame= 3867 fps=416 q=-0.0 size=N/A time=00:02:41.28 bitrate=N/A speed=17.4x    frame= 4123 fps=421 q=-0.0 size=N/A time=00:02:51.96 bitrate=N/A speed=17.5x    frame= 4396 fps=426 q=-0.0 size=N/A time=00:03:03.34 bitrate=N/A speed=17.7x    frame= 4657 fps=430 q=-0.0 size=N/A time=00:03:14.23 bitrate=N/A speed=17.9x    frame= 4909 fps=432 q=-0.0 size=N/A time=00:03:24.74 bitrate=N/A speed=  18x    frame= 5160 fps=435 q=-0.0 size=N/A time=00:03:35.21 bitrate=N/A speed=18.1x    frame= 5422 fps=438 q=-0.0 size=N/A time=00:03:46.14 bitrate=N/A speed=18.2x    frame= 5654 fps=438 q=-0.0 size=N/A time=00:03:55.81 bitrate=N/A speed=18.3x    frame= 5936 fps=442 q=-0.0 size=N/A time=00:04:07.58 bitrate=N/A speed=18.4x    frame= 6182 fps=444 q=-0.0 size=N/A time=00:04:17.84 bitrate=N/A speed=18.5x    frame= 6443 fps=446 q=-0.0 size=N/A time=00:04:28.72 bitrate=N/A speed=18.6x    frame= 6681 fps=447 q=-0.0 size=N/A time=00:04:38.69 bitrate=N/A speed=18.6x    frame= 6922 fps=447 q=-0.0 size=N/A time=00:04:48.70 bitrate=N/A speed=18.6x    frame= 7162 fps=448 q=-0.0 size=N/A time=00:04:58.71 bitrate=N/A speed=18.7x    frame= 7413 fps=449 q=-0.0 size=N/A time=00:05:09.18 bitrate=N/A speed=18.7x    frame= 7652 fps=449 q=-0.0 size=N/A time=00:05:19.15 bitrate=N/A speed=18.7x    frame= 7908 fps=451 q=-0.0 size=N/A time=00:05:29.82 bitrate=N/A speed=18.8x    frame= 8130 fps=450 q=-0.0 size=N/A time=00:05:39.08 bitrate=N/A speed=18.8x    frame= 8355 fps=450 q=-0.0 size=N/A time=00:05:48.47 bitrate=N/A speed=18.8x    frame= 8587 fps=450 q=-0.0 size=N/A time=00:05:58.14 bitrate=N/A speed=18.8x    frame= 8798 fps=449 q=-0.0 size=N/A time=00:06:06.94 bitrate=N/A speed=18.7x    frame= 9031 fps=449 q=-0.0 size=N/A time=00:06:16.66 bitrate=N/A speed=18.7x    frame= 9274 fps=449 q=-0.0 size=N/A time=00:06:26.80 bitrate=N/A speed=18.7x    frame= 9531 fps=451 q=-0.0 size=N/A time=00:06:37.52 bitrate=N/A speed=18.8x    frame= 9786 fps=452 q=-0.0 size=N/A time=00:06:48.15 bitrate=N/A speed=18.8x    frame=10047 fps=453 q=-0.0 size=N/A time=00:06:59.04 bitrate=N/A speed=18.9x    frame=10274 fps=453 q=-0.0 size=N/A time=00:07:08.51 bitrate=N/A speed=18.9x    frame=10527 fps=453 q=-0.0 size=N/A time=00:07:19.06 bitrate=N/A speed=18.9x    frame=10733 fps=452 q=-0.0 size=N/A time=00:07:27.65 bitrate=N/A speed=18.9x    frame=10946 fps=451 q=-0.0 size=N/A time=00:07:36.53 bitrate=N/A speed=18.8x    frame=11119 fps=449 q=-0.0 size=N/A time=00:07:43.75 bitrate=N/A speed=18.7x    frame=11346 fps=449 q=-0.0 size=N/A time=00:07:53.22 bitrate=N/A speed=18.7x    frame=11590 fps=449 q=-0.0 size=N/A time=00:08:03.39 bitrate=N/A speed=18.7x    frame=11819 fps=449 q=-0.0 size=N/A time=00:08:12.95 bitrate=N/A speed=18.7x    frame=12037 fps=449 q=-0.0 size=N/A time=00:08:22.04 bitrate=N/A speed=18.7x    frame=12270 fps=449 q=-0.0 size=N/A time=00:08:31.76 bitrate=N/A speed=18.7x    frame=12492 fps=448 q=-0.0 size=N/A time=00:08:41.02 bitrate=N/A speed=18.7x    frame=12728 fps=449 q=-0.0 size=N/A time=00:08:50.86 bitrate=N/A speed=18.7x    frame=12971 fps=449 q=-0.0 size=N/A time=00:09:00.99 bitrate=N/A speed=18.7x    frame=13207 fps=449 q=-0.0 size=N/A time=00:09:10.84 bitrate=N/A speed=18.7x    frame=13458 fps=450 q=-0.0 size=N/A time=00:09:21.31 bitrate=N/A speed=18.8x    frame=13701 fps=450 q=-0.0 size=N/A time=00:09:31.44 bitrate=N/A speed=18.8x    frame=13930 fps=450 q=-0.0 size=N/A time=00:09:40.99 bitrate=N/A speed=18.8x    frame=14169 fps=450 q=-0.0 size=N/A time=00:09:50.96 bitrate=N/A speed=18.8x    frame=14422 fps=451 q=-0.0 size=N/A time=00:10:01.51 bitrate=N/A speed=18.8x    frame=14678 fps=452 q=-0.0 size=N/A time=00:10:12.19 bitrate=N/A speed=18.8x    frame=14938 fps=452 q=-0.0 size=N/A time=00:10:23.03 bitrate=N/A speed=18.9x    frame=15210 fps=454 q=-0.0 size=N/A time=00:10:34.38 bitrate=N/A speed=18.9x    frame=15440 fps=453 q=-0.0 size=N/A time=00:10:43.97 bitrate=N/A speed=18.9x    frame=15644 fps=453 q=-0.0 size=N/A time=00:10:52.48 bitrate=N/A speed=18.9x    frame=15868 fps=452 q=-0.0 size=N/A time=00:11:01.82 bitrate=N/A speed=18.9x    frame=16020 fps=450 q=-0.0 size=N/A time=00:11:08.16 bitrate=N/A speed=18.8x    frame=16259 fps=450 q=-0.0 size=N/A time=00:11:18.13 bitrate=N/A speed=18.8x    frame=16487 fps=450 q=-0.0 size=N/A time=00:11:27.64 bitrate=N/A speed=18.8x    frame=16715 fps=450 q=-0.0 size=N/A time=00:11:37.15 bitrate=N/A speed=18.8x    frame=16964 fps=451 q=-0.0 size=N/A time=00:11:47.54 bitrate=N/A speed=18.8x    frame=17189 fps=450 q=-0.0 size=N/A time=00:11:56.92 bitrate=N/A speed=18.8x    frame=17416 fps=450 q=-0.0 size=N/A time=00:12:06.39 bitrate=N/A speed=18.8x    frame=17660 fps=451 q=-0.0 size=N/A time=00:12:16.56 bitrate=N/A speed=18.8x    frame=17932 fps=451 q=-0.0 size=N/A time=00:12:27.91 bitrate=N/A speed=18.8x    frame=18206 fps=453 q=-0.0 size=N/A time=00:12:39.34 bitrate=N/A speed=18.9x    frame=18461 fps=453 q=-0.0 size=N/A time=00:12:49.97 bitrate=N/A speed=18.9x    frame=18705 fps=453 q=-0.0 size=N/A time=00:13:00.15 bitrate=N/A speed=18.9x    frame=18975 fps=454 q=-0.0 size=N/A time=00:13:11.41 bitrate=N/A speed=18.9x    frame=19227 fps=455 q=-0.0 size=N/A time=00:13:21.92 bitrate=N/A speed=  19x    frame=19489 fps=455 q=-0.0 size=N/A time=00:13:32.85 bitrate=N/A speed=  19x    frame=19666 fps=454 q=-0.0 size=N/A time=00:13:40.23 bitrate=N/A speed=18.9x    frame=19808 fps=452 q=-0.0 size=N/A time=00:13:46.15 bitrate=N/A speed=18.8x    frame=20002 fps=451 q=-0.0 size=N/A time=00:13:54.25 bitrate=N/A speed=18.8x    frame=20246 fps=451 q=-0.0 size=N/A time=00:14:04.42 bitrate=N/A speed=18.8x    frame=20524 fps=452 q=-0.0 size=N/A time=00:14:16.02 bitrate=N/A speed=18.9x    frame=20799 fps=453 q=-0.0 size=N/A time=00:14:27.49 bitrate=N/A speed=18.9x    frame=21064 fps=454 q=-0.0 size=N/A time=00:14:38.54 bitrate=N/A speed=18.9x    frame=21275 fps=453 q=-0.0 size=N/A time=00:14:47.34 bitrate=N/A speed=18.9x    frame=21542 fps=454 q=-0.0 size=N/A time=00:14:58.48 bitrate=N/A speed=18.9x    frame=21791 fps=454 q=-0.0 size=N/A time=00:15:08.86 bitrate=N/A speed=18.9x    frame=22042 fps=454 q=-0.0 size=N/A time=00:15:19.33 bitrate=N/A speed=  19x    frame=22267 fps=454 q=-0.0 size=N/A time=00:15:28.71 bitrate=N/A speed=  19x    frame=22485 fps=454 q=-0.0 size=N/A time=00:15:37.81 bitrate=N/A speed=18.9x    frame=22743 fps=455 q=-0.0 size=N/A time=00:15:48.57 bitrate=N/A speed=  19x    frame=23020 fps=455 q=-0.0 size=N/A time=00:16:00.12 bitrate=N/A speed=  19x    frame=23274 fps=456 q=-0.0 size=N/A time=00:16:10.71 bitrate=N/A speed=  19x    frame=23514 fps=456 q=-0.0 size=N/A time=00:16:20.72 bitrate=N/A speed=  19x    frame=23752 fps=456 q=-0.0 size=N/A time=00:16:30.65 bitrate=N/A speed=  19x    frame=24000 fps=456 q=-0.0 size=N/A time=00:16:41.00 bitrate=N/A speed=  19x    frame=24257 fps=456 q=-0.0 size=N/A time=00:16:51.71 bitrate=N/A speed=  19x    frame=24523 fps=457 q=-0.0 size=N/A time=00:17:02.81 bitrate=N/A speed=19.1x    frame=24799 fps=458 q=-0.0 size=N/A time=00:17:14.32 bitrate=N/A speed=19.1x    frame=24995 fps=457 q=-0.0 size=N/A time=00:17:22.49 bitrate=N/A speed=19.1x    frame=25251 fps=457 q=-0.0 size=N/A time=00:17:33.17 bitrate=N/A speed=19.1x    frame=25491 fps=458 q=-0.0 size=N/A time=00:17:43.18 bitrate=N/A speed=19.1x    frame=25742 fps=458 q=-0.0 size=N/A time=00:17:53.65 bitrate=N/A speed=19.1x    frame=25997 fps=458 q=-0.0 size=N/A time=00:18:04.29 bitrate=N/A speed=19.1x    frame=26250 fps=458 q=-0.0 size=N/A time=00:18:14.84 bitrate=N/A speed=19.1x    frame=26460 fps=458 q=-0.0 size=N/A time=00:18:23.60 bitrate=N/A speed=19.1x    frame=26714 fps=458 q=-0.0 size=N/A time=00:18:34.19 bitrate=N/A speed=19.1x    frame=26972 fps=459 q=-0.0 size=N/A time=00:18:44.95 bitrate=N/A speed=19.1x    frame=27248 fps=459 q=-0.0 size=N/A time=00:18:56.46 bitrate=N/A speed=19.2x    frame=27499 fps=460 q=-0.0 size=N/A time=00:19:06.93 bitrate=N/A speed=19.2x    frame=27758 fps=460 q=-0.0 size=N/A time=00:19:17.73 bitrate=N/A speed=19.2x    frame=28030 fps=460 q=-0.0 size=N/A time=00:19:29.08 bitrate=N/A speed=19.2x    frame=28282 fps=461 q=-0.0 size=N/A time=00:19:39.59 bitrate=N/A speed=19.2x    frame=28546 fps=461 q=-0.0 size=N/A time=00:19:50.60 bitrate=N/A speed=19.2x    frame=28760 fps=461 q=-0.0 size=N/A time=00:19:59.53 bitrate=N/A speed=19.2x    frame=28963 fps=460 q=-0.0 size=N/A time=00:20:07.99 bitrate=N/A speed=19.2x    frame=29183 fps=460 q=-0.0 size=N/A time=00:20:17.17 bitrate=N/A speed=19.2x    frame=29443 fps=460 q=-0.0 size=N/A time=00:20:28.01 bitrate=N/A speed=19.2x    frame=29647 fps=460 q=-0.0 size=N/A time=00:20:36.52 bitrate=N/A speed=19.2x    frame=29898 fps=460 q=-0.0 size=N/A time=00:20:46.99 bitrate=N/A speed=19.2x    frame=30127 fps=460 q=-0.0 size=N/A time=00:20:56.54 bitrate=N/A speed=19.2x    frame=30332 fps=459 q=-0.0 size=N/A time=00:21:05.09 bitrate=N/A speed=19.2x    frame=30584 fps=460 q=-0.0 size=N/A time=00:21:15.60 bitrate=N/A speed=19.2x    frame=30836 fps=460 q=-0.0 size=N/A time=00:21:26.11 bitrate=N/A speed=19.2x    frame=31078 fps=460 q=-0.0 size=N/A time=00:21:36.21 bitrate=N/A speed=19.2x    frame=31307 fps=460 q=-0.0 size=N/A time=00:21:45.76 bitrate=N/A speed=19.2x    frame=31551 fps=460 q=-0.0 size=N/A time=00:21:55.93 bitrate=N/A speed=19.2x    frame=31743 fps=459 q=-0.0 size=N/A time=00:22:03.94 bitrate=N/A speed=19.2x    frame=31950 fps=459 q=-0.0 size=N/A time=00:22:12.58 bitrate=N/A speed=19.1x    frame=32191 fps=459 q=-0.0 size=N/A time=00:22:22.63 bitrate=N/A speed=19.1x    frame=32429 fps=459 q=-0.0 size=N/A time=00:22:32.55 bitrate=N/A speed=19.1x    frame=32662 fps=459 q=-0.0 size=N/A time=00:22:42.27 bitrate=N/A speed=19.1x    frame=32866 fps=458 q=-0.0 size=N/A time=00:22:50.78 bitrate=N/A speed=19.1x    frame=33083 fps=458 q=-0.0 size=N/A time=00:22:59.83 bitrate=N/A speed=19.1x    frame=33312 fps=458 q=-0.0 size=N/A time=00:23:09.38 bitrate=N/A speed=19.1x    frame=33556 fps=458 q=-0.0 size=N/A time=00:23:19.56 bitrate=N/A speed=19.1x    frame=33804 fps=458 q=-0.0 size=N/A time=00:23:29.90 bitrate=N/A speed=19.1x    frame=34022 fps=458 q=-0.0 size=N/A time=00:23:39.00 bitrate=N/A speed=19.1x    [Parsed_ssim_10 @ 000002caac2db340] SSIM Y:0.994103 (22.293709) U:0.991206 (20.558297) V:0.992298 (21.134051) All:0.993319 (21.751866)
[out#0/null @ 000002caac591440] video:14697KiB audio:267500KiB subtitle:0KiB other streams:0KiB global headers:0KiB muxing overhead: unknown
frame=34203 fps=458 q=-0.0 Lsize=N/A time=00:23:46.55 bitrate=N/A speed=19.1x    
